<?xml version="1.0" encoding="UTF-8"?>
<!DOCTYPE svg PUBLIC "-//W3C//DTD SVG 1.1//EN" "http://www.w3.org/Graphics/SVG/1.1/DTD/svg11.dtd">
<!-- Creator: CorelDRAW 2017 -->
<svg xmlns="http://www.w3.org/2000/svg" xml:space="preserve" width="705.556mm" height="705.556mm" version="1.1" style="shape-rendering:geometricPrecision; text-rendering:geometricPrecision; image-rendering:optimizeQuality; fill-rule:evenodd; clip-rule:evenodd"
viewBox="0 0 70556 70556"
 xmlns:xlink="http://www.w3.org/1999/xlink">
 <defs>
  <style type="text/css">
   <![CDATA[
    .fil0 {fill:#FFB18A;fill-rule:nonzero}
   ]]>
  </style>
 </defs>
 <g id="Capa_x0020_1">
  <metadata id="CorelCorpID_0Corel-Layer"/>
  <path class="fil0" d="M37441 31384c583,-561 1238,-1047 1953,-1418 358,-185 730,-341 1112,-465 190,-66 386,-107 579,-161 196,-35 391,-80 588,-94 394,-43 790,-33 1188,23 398,54 800,145 1214,219 829,157 1701,180 2540,66 841,-110 1669,-362 2436,-716 766,-357 1473,-787 2227,-1066 754,-278 1555,-402 2366,-388 809,8 1617,134 2395,364 106,32 217,-28 248,-135 31,-106 -29,-217 -135,-248 -811,-242 -1656,-376 -2504,-386 -847,-16 -1710,113 -2513,408 -804,297 -1522,734 -2259,1073 -739,337 -1514,572 -2318,676 -804,106 -1609,83 -2409,-69 -401,-72 -808,-166 -1232,-224 -423,-60 -861,-74 -1291,-28 -1720,202 -3279,1079 -4497,2250 -89,85 -92,226 -7,314 85,90 226,92 315,7l1 -1z"/>
  <path class="fil0" d="M55818 27418c447,-134 917,-95 1178,100 238,178 334,511 141,633 -170,108 -505,17 -565,0 -564,-154 -727,-648 -754,-733z"/>
  <path class="fil0" d="M53320 27254c107,-449 355,-852 620,-1007 242,-143 534,-99 535,120 2,193 -222,455 -262,503 -376,441 -818,395 -894,385z"/>
  <path class="fil0" d="M48185 28889c0,-463 148,-911 370,-1125 203,-195 496,-220 548,-7 46,187 -110,494 -138,550 -264,516 -704,574 -780,582z"/>
  <path class="fil0" d="M41062 29005c145,-388 409,-719 662,-829 231,-100 486,-30 464,165 -20,172 -247,380 -288,418 -383,353 -771,263 -838,246z"/>
  <path class="fil0" d="M52271 27434c201,274 484,477 708,507 205,28 390,-85 329,-234 -54,-132 -280,-245 -321,-265 -381,-192 -668,-35 -716,-7z"/>
  <path class="fil0" d="M44145 29349c145,404 416,748 679,863 240,104 506,32 486,-170 -18,-179 -253,-397 -295,-436 -395,-366 -801,-274 -871,-257z"/>
  <path class="fil0" d="M40129 29318c161,433 456,802 738,924 258,112 541,34 517,-183 -22,-192 -276,-425 -322,-468 -427,-392 -860,-292 -934,-274z"/>
  <path class="fil0" d="M34501 31064c-1218,-1171 -2777,-2048 -4497,-2250 -430,-46 -868,-33 -1291,28 -424,58 -830,152 -1231,224 -800,152 -1605,175 -2409,69 -804,-104 -1579,-339 -2318,-676 -737,-339 -1455,-775 -2259,-1073 -803,-295 -1666,-424 -2513,-408 -848,11 -1693,144 -2504,386 -106,32 -166,143 -135,249 31,106 142,166 248,134 778,-230 1586,-356 2395,-364 811,-13 1612,111 2366,388 754,279 1461,709 2227,1066 768,353 1595,606 2436,716 840,114 1711,91 2540,-66 414,-74 816,-165 1214,-219 398,-55 794,-66 1188,-23 197,15 392,59 588,94 193,54 389,95 579,161 383,124 755,280 1112,465 715,371 1370,857 1953,1418 89,85 230,83 315,-6 85,-89 83,-230 -6,-315l0 0z"/>
  <path class="fil0" d="M15814 27418c-447,-134 -917,-95 -1178,100 -238,178 -334,511 -141,633 170,108 505,17 565,0 564,-154 727,-648 754,-733z"/>
  <path class="fil0" d="M18313 27254c-108,-449 -355,-852 -621,-1007 -242,-143 -534,-99 -535,120 -2,193 222,455 262,503 376,441 818,395 894,385z"/>
  <path class="fil0" d="M23447 28889c0,-463 -148,-911 -370,-1125 -203,-195 -496,-220 -549,-7 -46,187 111,494 139,550 264,516 704,574 780,582z"/>
  <path class="fil0" d="M30571 29005c-145,-388 -409,-719 -662,-829 -231,-100 -486,-30 -464,165 20,172 247,380 288,418 383,353 771,263 838,246z"/>
  <path class="fil0" d="M19362 27434c-201,274 -484,477 -708,507 -205,28 -390,-85 -329,-234 54,-132 280,-245 321,-265 381,-192 667,-35 716,-7z"/>
  <path class="fil0" d="M27487 29349c-145,404 -416,748 -679,863 -240,104 -506,32 -486,-170 18,-179 253,-397 295,-436 395,-366 801,-274 871,-257z"/>
  <path class="fil0" d="M31503 29318c-161,433 -456,802 -738,924 -258,112 -542,34 -517,-183 22,-192 276,-425 321,-468 427,-392 860,-292 934,-274z"/>
 </g>
</svg>
